<?xml version="1.0" encoding="UTF-8"?>
<svg version="1.1" xmlns="http://www.w3.org/2000/svg" width="300" height="300">
<path d="M0 0 C0.5480127 0.43280273 1.09602539 0.86560547 1.66064453 1.31152344 C22.8382563 18.09424443 39.90387136 40.9989715 48 67 C48 67.99 48 68.98 48 70 C28.53 70 9.06 70 -11 70 C-11.66 73.63 -12.32 77.26 -13 81 C-13.42003497 82.92074522 -13.85765187 84.83792939 -14.32861328 86.74682617 C-14.56871124 87.72701218 -14.8088092 88.70719818 -15.05618286 89.71708679 C-15.43442703 91.23964836 -15.43442703 91.23964836 -15.8203125 92.79296875 C-16.08383514 93.86501053 -16.34735779 94.93705231 -16.61886597 96.0415802 C-17.45113979 99.42432724 -18.28798784 102.80592264 -19.125 106.1875 C-19.69431479 108.4979719 -20.26332804 110.80851812 -20.83203125 113.11914062 C-22.21787199 118.74695703 -23.60745758 124.37383833 -25 130 C-25.66 130 -26.32 130 -27 130 C-30.69998459 117.32078451 -34.22981075 104.5967695 -37.68682861 91.84945679 C-38.14622405 90.15588687 -38.6064722 88.46254803 -39.06756592 86.7694397 C-39.72219953 84.36393589 -40.37335293 81.95751788 -41.0234375 79.55078125 C-41.22316162 78.81831177 -41.42288574 78.08584229 -41.62866211 77.33117676 C-43 72.22939701 -43 72.22939701 -43 70 C-50.26 70 -57.52 70 -65 70 C-65.54527344 72.35125 -66.09054688 74.7025 -66.65234375 77.125 C-68.92876092 86.83739403 -71.3451169 96.51257501 -73.83666992 106.171875 C-74.32756665 108.08460548 -74.81310019 109.99871914 -75.29370117 111.9140625 C-75.99745678 114.71680874 -76.71750222 117.51489988 -77.44140625 120.3125 C-77.65398575 121.17270752 -77.86656525 122.03291504 -78.08558655 122.91918945 C-78.62704531 124.97406543 -79.30180109 126.99295961 -80 129 C-80.99 129.33 -81.98 129.66 -83 130 C-84.57123303 123.36250495 -86.13728374 116.72380281 -87.69970703 110.08422852 C-88.23203684 107.82483114 -88.76556022 105.56571464 -89.30029297 103.30688477 C-90.06790789 100.06339131 -90.83124972 96.81891786 -91.59375 93.57421875 C-91.83436157 92.56163498 -92.07497314 91.54905121 -92.32287598 90.50578308 C-92.65321838 89.09465996 -92.65321838 89.09465996 -92.99023438 87.6550293 C-93.18564819 86.82674118 -93.38106201 85.99845306 -93.58239746 85.14506531 C-94 83 -94 83 -94 80 C-114.46 80 -134.92 80 -156 80 C-156 89.24 -156 98.48 -156 108 C-146.43 108 -136.86 108 -127 108 C-127 117.9 -127 127.8 -127 138 C-138.7356163 141.52068489 -138.7356163 141.52068489 -145.375 141.8125 C-146.10468994 141.84819092 -146.83437988 141.88388184 -147.58618164 141.9206543 C-160.71451357 142.38936877 -172.76116756 139.40267208 -182.96875 130.90234375 C-192.75412694 121.73796189 -197.15676154 109.20051478 -198 96 C-197.98401068 81.33779596 -194.5078111 67.47697545 -184.125 56.625 C-174.16860601 47.38652436 -162.74470177 43.64857612 -149.26171875 43.78125 C-137.2711584 44.58540734 -127.66995242 48.87191961 -119 57 C-114.52834081 55.39916735 -112.11323533 51.92003135 -109.1875 48.375 C-108.12399581 47.10912467 -107.06019493 45.84349854 -105.99609375 44.578125 C-105.4841748 43.96517578 -104.97225586 43.35222656 -104.44482422 42.72070312 C-102.57645353 40.49558035 -100.66879702 38.30669968 -98.75 36.125 C-98.20859375 35.50882812 -97.6671875 34.89265625 -97.109375 34.2578125 C-96.74328125 33.84273437 -96.3771875 33.42765625 -96 33 C-107.30716525 20.64740341 -127.40205919 14.6293933 -143.61621094 13.87890625 C-156.12591018 13.4631635 -167.85743221 13.73650115 -180 17 C-181.65902344 17.42925781 -181.65902344 17.42925781 -183.3515625 17.8671875 C-185.91131762 18.54762873 -188.45844641 19.25497078 -191 20 C-180.65982074 -0.68035852 -150.42555556 -15.22605263 -129.7421875 -22.57421875 C-86.28654232 -36.86396571 -35.68505254 -28.90744387 0 0 Z " fill="#070707" transform="translate(236,38)"/>
<path d="M0 0 C3.3 0 6.6 0 10 0 C10 23.76 10 47.52 10 72 C16.6 72 23.2 72 30 72 C30 48.24 30 24.48 30 0 C35.61 0 41.22 0 47 0 C52.78582383 36.8846269 45.2959501 74.03567034 24 105 C21.15534332 108.81588261 18.14021191 112.42532794 15 116 C14.31550781 116.81726563 13.63101563 117.63453125 12.92578125 118.4765625 C-10.5379432 145.80030816 -45.3330085 162.0465516 -81 165 C-120.51820918 167.49541783 -157.03034862 153.93441201 -186.61694336 128.04199219 C-205.70948858 110.89362876 -218.96210827 88.75294334 -226.5 64.3125 C-226.90182495 63.01916748 -226.90182495 63.01916748 -227.31176758 61.69970703 C-227.54919678 60.88743652 -227.78662598 60.07516602 -228.03125 59.23828125 C-228.24330078 58.51680908 -228.45535156 57.79533691 -228.67382812 57.05200195 C-229.041266 54.74038865 -228.71394825 53.20994348 -228 51 C-227.03513672 52.25103516 -227.03513672 52.25103516 -226.05078125 53.52734375 C-212.74696366 70.29075341 -194.51145951 80.21659959 -173.2890625 83.58984375 C-151.64781083 86.02031084 -127.7358549 84.11531295 -107.72167969 74.95751953 C-101.10167215 71.99178769 -95.57854864 71.49994357 -88.375 71.75 C-86.86873047 71.77707031 -86.86873047 71.77707031 -85.33203125 71.8046875 C-82.88697348 71.85126003 -80.44403188 71.91662972 -78 72 C-77.90920166 71.10724365 -77.81840332 70.2144873 -77.72485352 69.29467773 C-76.88836009 63.48068927 -75.06317737 57.90570982 -73.40234375 52.28515625 C-72.87176109 50.46883949 -72.87176109 50.46883949 -72.33045959 48.61582947 C-71.39518735 45.41733596 -70.45579566 42.22011315 -69.51434326 39.0234375 C-68.55228198 35.75297883 -67.59571718 32.48091367 -66.63867188 29.20898438 C-64.76414796 22.80450555 -62.88417176 16.40164668 -61 10 C-58.08269908 12.45499026 -57.24133679 14.69847694 -56.19067383 18.32592773 C-55.71051567 19.95793373 -55.71051567 19.95793373 -55.22065735 21.62290955 C-54.88616074 22.79793533 -54.55166412 23.97296112 -54.20703125 25.18359375 C-53.85613937 26.39064468 -53.5052475 27.59769562 -53.14372253 28.84132385 C-52.40369588 31.39470717 -51.6675102 33.94882892 -50.93774414 36.50512695 C-50.00323563 39.77768685 -49.05542653 43.04620201 -48.10298634 46.31358242 C-47.19429912 49.43522832 -46.29458359 52.55944913 -45.39453125 55.68359375 C-45.05396194 56.85659531 -44.71339264 58.02959686 -44.36250305 59.23814392 C-44.0518541 60.32930008 -43.74120514 61.42045624 -43.42114258 62.54467773 C-43.14595291 63.50381577 -42.87076324 64.4629538 -42.5872345 65.45115662 C-42 68 -42 68 -42 72 C-31.605 71.505 -31.605 71.505 -21 71 C-20.43490723 68.99131836 -19.86981445 66.98263672 -19.28759766 64.91308594 C-17.41932895 58.2743847 -15.54662811 51.63693969 -13.67174721 45.000103 C-12.5352175 40.97641429 -11.40018143 36.95231673 -10.26855469 32.92724609 C-9.17629187 29.04239946 -8.08011119 25.15867802 -6.98121262 21.27570343 C-6.56278317 19.79455157 -6.1457637 18.31300064 -5.73018265 16.83104706 C-5.14758708 14.75445264 -4.55998135 12.67933741 -3.97119141 10.60449219 C-3.4715538 8.83244415 -3.4715538 8.83244415 -2.96182251 7.02459717 C-2 4 -2 4 0 0 Z " fill="#07AC07" transform="translate(242,126)"/>
<path d="M0 0 C0.66 0.33 1.32 0.66 2 1 C-2.62 5.62 -7.24 10.24 -12 15 C-11.34 15.66 -10.68 16.32 -10 17 C-12.64 17.66 -15.28 18.32 -18 19 C-14.0898502 11.1797004 -6.60263908 5.50219923 0 0 Z " fill="#5F5F5F" transform="translate(63,39)"/>
<path d="M0 0 C2.64752004 2.57784846 4.94432065 4.91648098 7 8 C6.01 8 5.02 8 4 8 C3.34 9.32 2.68 10.64 2 12 C0.86235649 7.73383684 0 4.43513689 0 0 Z " fill="#7AD37A" transform="translate(13,177)"/>
</svg>
