<?xml version="1.0" encoding="UTF-8"?>
<svg version="1.1" xmlns="http://www.w3.org/2000/svg" width="1080" height="1080">
<path d="M0 0 C1.18335938 0.93972656 1.18335938 0.93972656 2.390625 1.8984375 C18.50393487 15.32619573 27.06845879 35.61770951 30 56 C30.08962682 58.34636246 30.13061701 60.69489615 30.1328125 63.04296875 C30.13376923 63.69324539 30.13472595 64.34352203 30.13571167 65.01350403 C30.13638783 66.37741188 30.13457318 67.74132306 30.13037109 69.10522461 C30.12498848 71.19196754 30.13034853 73.27849782 30.13671875 75.36523438 C30.13478516 77.34040039 30.13478516 77.34040039 30.1328125 79.35546875 C30.13168457 80.55840576 30.13055664 81.76134277 30.12939453 83.00073242 C30 86 30 86 29 89 C-14.89 89 -58.78 89 -104 89 C-98.78071104 108.98289038 -98.78071104 108.98289038 -85 123 C-73.1934014 129.41523854 -59.53076036 131.36949885 -46.375 127.875 C-38.66832256 125.04127324 -32.7945195 119.54826705 -28 113 C-27.71382813 112.14776855 -27.42765625 111.29553711 -27.1328125 110.41748047 C-25 108 -25 108 -22.75727844 107.56013489 C-19.67716355 107.41855481 -16.633396 107.4394046 -13.55078125 107.51171875 C-12.4230278 107.51879349 -11.29527435 107.52586823 -10.13334656 107.53315735 C-6.52572741 107.56118148 -2.91965129 107.62393892 0.6875 107.6875 C3.13083699 107.71257231 5.57419826 107.73538733 8.01757812 107.75585938 C14.01224663 107.81103451 20.0060131 107.89474184 26 108 C25.52791402 109.60168457 25.05360919 111.20271525 24.57836914 112.8034668 C24.31447891 113.69511032 24.05058868 114.58675385 23.77870178 115.50541687 C17.53271337 135.51453678 1.1130705 151.48968583 -17.04296875 161.04980469 C-30.53038901 167.59833758 -44.79548945 169.39473259 -59.625 169.375 C-60.28441589 169.37478851 -60.94383179 169.37457703 -61.62322998 169.37435913 C-87.59132212 169.29137262 -109.56310888 160.38313925 -128 142 C-128.98613281 141.04867187 -128.98613281 141.04867187 -129.9921875 140.078125 C-147.17350944 122.18421367 -152.4313165 95.50187573 -152.1484375 71.5703125 C-151.0305565 44.68233269 -142.41251917 20.62713243 -122.75 1.6875 C-89.71685558 -26.9722422 -33.77837879 -27.86178378 0 0 Z M-93.3203125 32.8671875 C-98.71979166 39.72327034 -103 48.16216335 -103 57 C-74.95 57 -46.9 57 -18 57 C-19.84921759 45.53912423 -19.84921759 45.53912423 -25 36 C-25.70125 34.96875 -26.4025 33.9375 -27.125 32.875 C-34.62631797 24.40653097 -45.97012294 20.0027161 -57 19 C-70.77188958 18.32269395 -83.82125531 22.50099646 -93.3203125 32.8671875 Z " fill="#32B631" transform="translate(501,461)"/>
<path d="M0 0 C1.1319001 -0.00143509 1.1319001 -0.00143509 2.28666687 -0.00289917 C3.88113488 -0.0035785 5.47560569 -0.00174142 7.07006836 0.00244141 C9.49274018 0.00777075 11.91522472 0.00249966 14.33789062 -0.00390625 C15.89192749 -0.00324499 17.44596424 -0.00196283 19 0 C19.71690506 -0.00202423 20.43381012 -0.00404846 21.17243958 -0.00613403 C24.55029999 0.00935813 27.74019125 0.21224437 31.08666992 0.70361328 C34.10002144 1.41791148 34.10002144 1.41791148 36.19921875 0.1328125 C38.38462686 0.04092308 40.57291844 0.01531014 42.76025391 0.01928711 C43.43354233 0.01914108 44.10683075 0.01899506 44.80052185 0.0188446 C47.02980756 0.01954223 49.2590101 0.02732761 51.48828125 0.03515625 C53.03241938 0.03702096 54.57655809 0.03844461 56.12069702 0.03944397 C60.18792347 0.04326496 64.2551143 0.05309168 68.32232666 0.06414795 C72.47138995 0.07437106 76.620459 0.07894352 80.76953125 0.08398438 C88.91277678 0.09471431 97.05599333 0.11178573 105.19921875 0.1328125 C105.22240536 9.04293733 105.24016607 17.95305175 105.25103092 26.86320019 C105.25624592 31.00068923 105.26331845 35.13815761 105.2746582 39.27563477 C105.28553624 43.26971451 105.29150602 47.2637744 105.29409599 51.25786781 C105.29594138 52.7804629 105.29954493 54.30305692 105.30494881 55.82564354 C105.31222448 57.96085318 105.31320694 60.0959811 105.31274414 62.23120117 C105.31496475 63.4458757 105.31718536 64.66055023 105.31947327 65.91203308 C105.21212468 68.78715267 104.78934616 71.32931652 104.19921875 74.1328125 C104.4960424 75.80636698 104.83338016 77.47297786 105.19921875 79.1328125 C106.19354376 96.20373667 107.0161097 114.15282686 100.19921875 130.1328125 C99.9151416 130.81537109 99.63106445 131.49792969 99.33837891 132.20117188 C88.68756022 157.07040056 68.91250528 174.69927409 44.19921875 185.1328125 C33.32424902 189.07285389 23.6253645 190.36778408 12.11962891 190.42797852 C10.6071632 190.43940003 9.09473458 190.45969244 7.58251953 190.48950195 C-16.94845291 190.97171632 -38.62674087 182.13080811 -56.57592773 165.26196289 C-57.99527012 163.89698528 -59.39841749 162.51522798 -60.80078125 161.1328125 C-61.53167969 160.41480469 -62.26257813 159.69679688 -63.015625 158.95703125 C-76.04726517 145.25445515 -86.02922484 124.86705116 -86.171875 105.85546875 C-86.18090347 105.08585312 -86.18993195 104.31623749 -86.19923401 103.52330017 C-86.21365457 101.90058217 -86.22260269 100.27780711 -86.22631836 98.6550293 C-86.23810357 96.23184649 -86.2872698 93.81131068 -86.33789062 91.38867188 C-86.59618046 66.53647046 -75.97776786 45.60618839 -59.19140625 27.53515625 C-45.67574175 13.95323849 -29.97652012 6.41207275 -11.80078125 1.1328125 C-11.22400635 0.94799316 -10.64723145 0.76317383 -10.05297852 0.57275391 C-6.71444759 -0.07939056 -3.38786429 -0.00948552 0 0 Z M-34.578125 57.43359375 C-40.97317204 65.1998108 -44.78574632 73.31556232 -46.80078125 83.1328125 C-47.02765625 84.1021875 -47.25453125 85.0715625 -47.48828125 86.0703125 C-49.1638861 102.49124 -45.70496668 117.71822335 -35.6484375 130.96875 C-25.54650275 142.92079598 -12.26161993 149.97269532 3.19921875 152.1328125 C20.34359578 153.55761768 35.15104035 148.32623319 48.82421875 138.1328125 C59.91434227 128.69272166 66.21881773 115.45833013 68.19921875 101.1328125 C68.31136952 99.17669443 68.37372613 97.21709984 68.38671875 95.2578125 C68.40089844 94.29101562 68.41507813 93.32421875 68.4296875 92.328125 C68.14631629 88.39935123 67.23696433 84.93104336 66.19921875 81.1328125 C65.32185059 81.1234668 64.44448242 81.11412109 63.54052734 81.10449219 C60.26354453 81.06029647 56.98783732 80.99860598 53.71142578 80.92529297 C52.29748427 80.89718858 50.88338873 80.87592183 49.46923828 80.86181641 C47.42791491 80.84023794 45.38842276 80.79352164 43.34765625 80.7421875 C42.12224121 80.72124023 40.89682617 80.70029297 39.63427734 80.67871094 C34.88842131 79.92450098 31.93189598 77.84422517 28.5480957 74.50195312 C24.11813318 68.03356248 24.42156265 61.25201221 24.38671875 53.6328125 C24.36158203 52.3334375 24.33644531 51.0340625 24.31054688 49.6953125 C24.25194752 46.50750759 24.21546585 43.3210676 24.19921875 40.1328125 C4.06368304 31.3962297 -20.68043412 42.67718375 -34.578125 57.43359375 Z " fill="#068F50" transform="translate(763.80078125,440.8671875)"/>
<path d="M0 0 C43.89 0 87.78 0 133 0 C133 40 133 40 123 53 C120.78032465 55.99282069 118.5699572 58.98938587 116.375 62 C111.32497304 68.8919991 106.1934968 75.71553322 101 82.5 C95.35087147 89.88055326 89.79350243 97.31980169 84.30224609 104.81835938 C79.18324124 111.7912741 73.94808874 118.67264449 68.6796875 125.53320312 C64.0132193 131.62178715 59.51613458 137.79031495 55 144 C81.07 144.33 107.14 144.66 134 145 C134 157.87 134 170.74 134 184 C89.78 184 45.56 184 0 184 C0 140.88028169 0 140.88028169 10.0078125 130.046875 C10.67329102 129.38880859 11.33876953 128.73074219 12.02441406 128.05273438 C15.42998623 124.5141715 18.16031698 120.49506797 21 116.5 C22.16629575 114.91187335 23.3355655 113.32592643 24.5078125 111.7421875 C26.81978493 108.60497114 29.12668302 105.46411724 31.4296875 102.3203125 C38.28809844 92.96837651 45.25459927 83.70927317 52.30664062 74.50244141 C56.082468 69.55935556 59.78513327 64.57949971 63.375 59.5 C68.08550955 52.87982442 73.04610007 46.44006991 78 40 C52.26 39.67 26.52 39.34 0 39 C0 26.13 0 13.26 0 0 Z " fill="#32B631" transform="translate(193,444)"/>
<path d="M0 0 C0 16.17 0 32.34 0 49 C-9.9 49.495 -9.9 49.495 -20 50 C-30.77020262 51.67732664 -40.14059369 53.96890688 -47.375 62.625 C-54.31483804 72.88731008 -55.12836905 85.00330913 -55.20532227 96.99609375 C-55.21522186 97.96286545 -55.22512146 98.92963715 -55.23532104 99.92570496 C-55.26671069 103.09627906 -55.29160366 106.26686811 -55.31640625 109.4375 C-55.33699527 111.64567436 -55.35799224 113.85384495 -55.37937927 116.06201172 C-55.43439878 121.85529516 -55.48389628 127.64861298 -55.53222656 133.44195557 C-55.59145405 140.40297683 -55.65757064 147.36393568 -55.72252655 154.3249054 C-55.82028265 164.88323194 -55.90931199 175.44159973 -56 186 C-71.51 186 -87.02 186 -103 186 C-103 125.28 -103 64.56 -103 2 C-87.49 2 -71.98 2 -56 2 C-55.505 14.375 -55.505 14.375 -55 27 C-53.68 25.494375 -52.36 23.98875 -51 22.4375 C-36.62059715 6.60901004 -21.51802099 0 0 0 Z " fill="#32B631" transform="translate(667,442)"/>
<path d="M0 0 C0.67328842 -0.00014603 1.34657684 -0.00029205 2.04026794 -0.0004425 C4.26955366 0.00025512 6.4987562 0.0080405 8.72802734 0.01586914 C10.27216547 0.01773385 11.81630419 0.01915751 13.36044312 0.02015686 C17.42766957 0.02397785 21.49486039 0.03380457 25.56207275 0.04486084 C29.71113605 0.05508395 33.86020509 0.05965641 38.00927734 0.06469727 C46.15252287 0.0754272 54.29573943 0.09249862 62.43896484 0.11352539 C62.57826777 8.98895397 62.68473775 17.86400364 62.74983788 26.74028873 C62.7810904 30.86240949 62.8234491 34.98377984 62.89160156 39.10546875 C62.9570155 43.0866624 62.99271659 47.06713646 63.0082283 51.04882622 C63.01927558 52.5642981 63.04084934 54.0797326 63.07334518 55.59489632 C63.34805865 68.94012847 63.34805865 68.94012847 59.96484375 73.28710938 C58.30334473 74.78016663 58.30334473 74.78016663 56.43896484 76.11352539 C55.79133179 76.6062645 55.14369873 77.0990036 54.47644043 77.60667419 C48.2358195 81.707892 42.29031509 81.84395421 34.99365234 81.77758789 C33.23977707 81.78476334 33.23977707 81.78476334 31.45046997 81.79208374 C28.99138027 81.79547061 26.53224479 81.78635385 24.07324219 81.76538086 C20.31782544 81.73855297 16.56538444 81.76519863 12.81005859 81.79711914 C10.41291661 81.79381578 8.01577647 81.78741107 5.61865234 81.77758789 C3.94341995 81.79276962 3.94341995 81.79276962 2.23434448 81.80825806 C-3.50952871 81.72216735 -7.73397313 81.42951934 -12.16722107 77.55200195 C-18.29966091 71.22305819 -18.1627419 65.81485738 -18.12744141 57.34008789 C-18.13363998 56.1023764 -18.13983856 54.86466492 -18.14622498 53.58944702 C-18.15513038 50.30763179 -18.14404064 47.02656731 -18.12713623 43.74481201 C-18.1211772 40.42482288 -18.16403716 37.10521072 -18.19580078 33.78540039 C-18.19675222 31.24112899 -18.19489182 28.69685466 -18.18994141 26.15258789 C-18.20319962 24.96589508 -18.21645782 23.77920227 -18.2301178 22.55654907 C-18.15366439 15.71702526 -17.54099594 10.18341737 -12.56103516 5.11352539 C-11.57103516 4.78352539 -10.58103516 4.45352539 -9.56103516 4.11352539 C-9.23103516 3.12352539 -8.90103516 2.13352539 -8.56103516 1.11352539 C-5.68359248 -0.32519595 -3.21537593 -0.00584614 0 0 Z " fill="#31B531" transform="translate(806.56103515625,440.886474609375)"/>
</svg>
